<svg xmlns="http://www.w3.org/2000/svg" width="1800" height="1000" viewBox="0 0 1800 1000" role="img"><title>项目已确定的六个边界</title><defs><marker id="a" markerWidth="9" markerHeight="9" refX="8" refY="4.5" orient="auto-start-reverse"><path d="M0 0L9 4.5L0 9z" fill="#087f86"/></marker><pattern id="hatch" width="10" height="10" patternUnits="userSpaceOnUse" patternTransform="rotate(45)"><line x1="0" y1="0" x2="0" y2="10" stroke="#abc2cf" stroke-width="3"/></pattern></defs><rect width="1800" height="1000" fill="#f4f8fb"/><text x="65" y="74" fill="#18364d" font-family="PingFang SC,Heiti SC,Arial,sans-serif" font-size="43" font-weight="700">50  项目已确定的六个边界</text><text x="65" y="120" fill="#587080" font-family="PingFang SC,Heiti SC,Arial,sans-serif" font-size="25" font-weight="400">读图：中心模块与外围输入／交付项的关系；具体接口以受控文档为准</text><rect x="670" y="385" width="460" height="190" rx="12" fill="#dceef0" stroke="#087f86" stroke-width="2.5"/><text x="706" y="455" fill="#18364d" font-family="PingFang SC,Heiti SC,Arial,sans-serif" font-size="33" font-weight="400">共享毛巾服务</text><rect x="65" y="190" width="515" height="185" rx="12" fill="white" stroke="#d8e4ec" stroke-width="2.5"/><rect x="65" y="190" width="515" height="7" rx="3" fill="#087f86" stroke="#087f86" stroke-width="2.5"/><text x="87" y="237" fill="#087f86" font-family="PingFang SC,Heiti SC,Arial,sans-serif" font-size="29" font-weight="700">场景</text><text x="87" y="286" fill="#18364d" font-family="PingFang SC,Heiti SC,Arial,sans-serif" font-size="26" font-weight="400">Condo泳池与健身房</text><path d="M580 282L670 480" fill="none" stroke="#d8e4ec" stroke-width="3"/><rect x="1220" y="190" width="515" height="185" rx="12" fill="white" stroke="#d8e4ec" stroke-width="2.5"/><rect x="1220" y="190" width="515" height="7" rx="3" fill="#087f86" stroke="#087f86" stroke-width="2.5"/><text x="1242" y="237" fill="#087f86" font-family="PingFang SC,Heiti SC,Arial,sans-serif" font-size="29" font-weight="700">用户</text><text x="1242" y="286" fill="#18364d" font-family="PingFang SC,Heiti SC,Arial,sans-serif" font-size="26" font-weight="400">Liveo App认证账号</text><path d="M1220 282L1130 480" fill="none" stroke="#d8e4ec" stroke-width="3"/><rect x="65" y="420" width="515" height="185" rx="12" fill="white" stroke="#d8e4ec" stroke-width="2.5"/><rect x="65" y="420" width="515" height="7" rx="3" fill="#087f86" stroke="#087f86" stroke-width="2.5"/><text x="87" y="467" fill="#087f86" font-family="PingFang SC,Heiti SC,Arial,sans-serif" font-size="29" font-weight="700">发放</text><text x="87" y="516" fill="#18364d" font-family="PingFang SC,Heiti SC,Arial,sans-serif" font-size="26" font-weight="400">顺序下一条，小口交付</text><path d="M580 512L670 480" fill="none" stroke="#d8e4ec" stroke-width="3"/><rect x="1220" y="420" width="515" height="185" rx="12" fill="white" stroke="#d8e4ec" stroke-width="2.5"/><rect x="1220" y="420" width="515" height="7" rx="3" fill="#087f86" stroke="#087f86" stroke-width="2.5"/><text x="1242" y="467" fill="#087f86" font-family="PingFang SC,Heiti SC,Arial,sans-serif" font-size="29" font-weight="700">维护</text><text x="1242" y="516" fill="#18364d" font-family="PingFang SC,Heiti SC,Arial,sans-serif" font-size="26" font-weight="400">库存门只供授权人员</text><path d="M1220 512L1130 480" fill="none" stroke="#d8e4ec" stroke-width="3"/><rect x="65" y="650" width="515" height="185" rx="12" fill="white" stroke="#d8e4ec" stroke-width="2.5"/><rect x="65" y="650" width="515" height="7" rx="3" fill="#087f86" stroke="#087f86" stroke-width="2.5"/><text x="87" y="697" fill="#087f86" font-family="PingFang SC,Heiti SC,Arial,sans-serif" font-size="29" font-weight="700">采购</text><text x="87" y="746" fill="#18364d" font-family="PingFang SC,Heiti SC,Arial,sans-serif" font-size="26" font-weight="400">模块分包，整机统筹</text><path d="M580 742L670 480" fill="none" stroke="#d8e4ec" stroke-width="3"/><rect x="1220" y="650" width="515" height="185" rx="12" fill="white" stroke="#d8e4ec" stroke-width="2.5"/><rect x="1220" y="650" width="515" height="7" rx="3" fill="#087f86" stroke="#087f86" stroke-width="2.5"/><text x="1242" y="697" fill="#087f86" font-family="PingFang SC,Heiti SC,Arial,sans-serif" font-size="29" font-weight="700">范围</text><text x="1242" y="746" fill="#18364d" font-family="PingFang SC,Heiti SC,Arial,sans-serif" font-size="26" font-weight="400">先实物验证，不做表结构</text><path d="M1220 742L1130 480" fill="none" stroke="#d8e4ec" stroke-width="3"/><text x="665" y="675" fill="#18364d" font-family="PingFang SC,Heiti SC,Arial,sans-serif" font-size="23" font-weight="400">图示为已确认需求，不是已实现能</text><text x="665" y="713" fill="#18364d" font-family="PingFang SC,Heiti SC,Arial,sans-serif" font-size="23" font-weight="400">力。</text><path d="M65 928L1735 928" fill="none" stroke="#d8e4ec" stroke-width="3"/><text x="65" y="970" fill="#587080" font-family="PingFang SC,Heiti SC,Arial,sans-serif" font-size="22" font-weight="400">阅读辅助示意｜不是实物测试记录、制造CAD或认证结论；具体实现与阈值按正文及批准工程文件。</text></svg>